# xmcd
#
# Track frame offsets: 
#        150
#        20600
#        34457
#        53075
#        71570
#        94742
#        121029
#        138075
#        169307
#        193232
#        221535
#        239430
#
# Disc length: 3311 seconds
#
# Revision: 11
# Processed by: cddbd v1.5.2PL0 Copyright (c) Steve Scherf et al.
# Submitted via: ExactAudioCopy v0.99pb4
#
DISCID=ac0ced0c
DTITLE=Michel Petrucciani, Stephane Grappelli, Roy Haynes and George Mra
DTITLE=z - Flamingo
DYEAR=1996
DGENRE=Jazz
TTITLE0=These Foolish Things
TTITLE1=Little Peace In C For U
TTITLE2=Flamingo
TTITLE3=Sweet Georgia Brown
TTITLE4=I Can't Get Started
TTITLE5=I Got Rhythm
TTITLE6=I Love New York In June (How About You)
TTITLE7=Misty
TTITLE8=I Remember April
TTITLE9=Lover Man
TTITLE10=There Will Never Be Another You
TTITLE11=Valse Du Passé
EXTD=YEAR: 1996
EXTT0=
EXTT1=
EXTT2=
EXTT3=
EXTT4=
EXTT5=
EXTT6=
EXTT7=
EXTT8=
EXTT9=
EXTT10=
EXTT11=
PLAYORDER=
